<?xml version="1.0" encoding="UTF-8" standalone="no" ?>
<!DOCTYPE svg PUBLIC "-//W3C//DTD SVG 1.1//EN" "http://www.w3.org/Graphics/SVG/1.1/DTD/svg11.dtd">
<svg xmlns="http://www.w3.org/2000/svg" xmlns:xlink="http://www.w3.org/1999/xlink" version="1.1" width="200" height="80" viewBox="0 0 200 80" xml:space="preserve">
<desc>Created with Fabric.js 4.2.0</desc>
<defs>
</defs>
<g transform="matrix(1 0 0 1 100 40)" id="8e56892d-d729-4093-801d-e375da6ce665"  >
<rect style="stroke: none; stroke-width: 1; stroke-dasharray: none; stroke-linecap: butt; stroke-dashoffset: 0; stroke-linejoin: miter; stroke-miterlimit: 4; fill: rgb(255,255,255); fill-opacity: 0; fill-rule: nonzero; opacity: 1;" vector-effect="non-scaling-stroke"  x="-100" y="-40" rx="0" ry="0" width="200" height="80" />
</g>
<g transform="matrix(Infinity NaN NaN Infinity 0 0)" id="c4d3950e-c0f7-462e-b7c4-3aeb9db5d12e"  >
</g>
<g transform="matrix(0.93 0 0 0.93 100.31 43.64)" id="12a9eb00-6575-4779-b55f-2cd0eccc0d72"  >
<path style="stroke: rgb(0,0,0); stroke-width: 0; stroke-dasharray: none; stroke-linecap: butt; stroke-dashoffset: 0; stroke-linejoin: miter; stroke-miterlimit: 4; fill: rgb(255,255,255); fill-rule: nonzero; opacity: 1;" vector-effect="non-scaling-stroke"  transform=" translate(-96, -16)" d="M 2.694 26.324 C 3.4091865657198355 26.324265917370553 4.0951280987371526 26.04013999122799 4.600653790233042 25.534239141519485 C 5.1061794817289305 25.028338291810986 5.389796471056524 24.34218617165885 5.388999999999999 23.627000000000002 L 5.388999999999999 2.697 C 5.388999999999999 1.2088687415809267 4.182631258419073 0.0024999999999995026 2.6944999999999992 0.0024999999999995026 C 1.2063687415809259 0.0024999999999995026 -1.7763568394002505e-15 1.2088687415809265 -1.7763568394002505e-15 2.6969999999999996 L -8.881784197001252e-16 23.627 C -0.0007962286311216345 24.342012867288908 0.282683556628356 25.028013268863454 0.7879928862914392 25.533885303793422 C 1.2933022159545224 26.03975733872339 1.9789866893766632 26.324000443334562 2.6940000000000004 26.323999999999998 z M 18.2 26.537000000000003 C 24.119999999999997 26.537000000000003 28.517 22.102000000000004 28.517 16.639000000000003 L 28.517 16.568 C 28.517 11.104000000000001 24.157 6.741000000000001 18.271 6.741000000000001 C 12.351 6.741000000000001 7.954000000000001 11.175 7.954000000000001 16.639000000000003 L 7.954000000000001 16.709000000000003 C 7.954000000000001 22.173000000000002 12.315000000000001 26.537000000000003 18.200000000000003 26.537000000000003 z M 18.271 21.889000000000003 C 15.293000000000001 21.889000000000003 13.272000000000002 19.441000000000003 13.272000000000002 16.639000000000003 L 13.272000000000002 16.568 C 13.272000000000002 13.765 15.116000000000001 11.388000000000002 18.200000000000003 11.388000000000002 C 21.178000000000004 11.388000000000002 23.200000000000003 13.836000000000002 23.200000000000003 16.638 L 23.200000000000003 16.71 C 23.200000000000003 19.512 21.356 21.89 18.271 21.89 z M 40.158 26.537000000000003 C 46.079 26.537000000000003 50.475 22.102000000000004 50.475 16.639000000000003 L 50.475 16.568 C 50.475 11.104000000000001 46.115 6.741000000000001 40.229 6.741000000000001 C 34.309 6.741000000000001 29.912 11.175 29.912 16.639000000000003 L 29.912 16.709000000000003 C 29.912 22.173000000000002 34.272999999999996 26.537000000000003 40.158 26.537000000000003 z M 40.229 21.889000000000003 C 37.251 21.889000000000003 35.23 19.441000000000003 35.23 16.639000000000003 L 35.23 16.568 C 35.23 13.765 37.074 11.388000000000002 40.157999999999994 11.388000000000002 C 43.13699999999999 11.388000000000002 45.157999999999994 13.836000000000002 45.157999999999994 16.638 L 45.157999999999994 16.71 C 45.157999999999994 19.512 43.31399999999999 21.89 40.22899999999999 21.89 z M 55.487 32 C 56.201839880732464 32.00000019698976 56.887372589524986 31.715894343086347 57.392653124122454 31.21023869302147 C 57.89793365871993 30.704583042956592 58.181530690334654 30.01883968374273 58.181000000000004 29.304 L 58.181000000000004 23.627 C 59.458000000000006 25.153 61.231 26.465999999999998 64.102 26.465999999999998 C 68.605 26.465999999999998 72.75200000000001 22.988999999999997 72.75200000000001 16.638999999999996 L 72.75200000000001 16.567999999999994 C 72.75200000000001 10.217999999999995 68.534 6.740999999999994 64.102 6.740999999999994 C 61.30200000000001 6.740999999999994 59.493 8.052999999999994 58.182 9.826999999999995 L 58.182 9.58 C 58.182 8.091592599206011 56.97540740079399 6.885 55.487 6.885 C 53.99859259920601 6.885 52.792 8.091592599206011 52.792 9.58 L 52.792 29.305 C 52.79173439342995 30.020013132656377 53.07572308988986 30.70580285819364 53.581407535020965 31.21129973491038 C 54.087091980152074 31.71679661162712 54.772987015085214 32.000530868324375 55.488 32 z M 62.719 21.89 C 60.202 21.89 58.111000000000004 19.796 58.111000000000004 16.639 L 58.111000000000004 16.567999999999998 C 58.111000000000004 13.409999999999998 60.202000000000005 11.317999999999998 62.719 11.317999999999998 C 65.237 11.317999999999998 67.364 13.409999999999998 67.364 16.567999999999998 L 67.364 16.637999999999998 C 67.364 19.831 65.23700000000001 21.889 62.71900000000001 21.889 z M 81.806 26.466 C 85.919 26.466 89.074 24.55 89.074 20.328000000000003 L 89.074 20.258000000000003 C 89.074 16.78 85.99 15.503000000000004 83.331 14.616000000000003 C 81.274 13.906000000000002 79.46600000000001 13.410000000000004 79.46600000000001 12.346000000000004 L 79.46600000000001 12.275000000000004 C 79.46600000000001 11.530000000000005 80.14000000000001 10.962000000000003 81.45100000000001 10.962000000000003 C 82.58600000000001 10.962000000000003 84.04 11.424000000000003 85.56400000000001 12.169000000000004 C 85.91900000000001 12.346000000000004 86.167 12.417000000000003 86.557 12.417000000000003 C 87.762 12.417000000000003 88.71900000000001 11.494000000000003 88.71900000000001 10.288000000000004 C 88.71900000000001 9.366000000000003 88.22300000000001 8.656000000000004 87.44300000000001 8.266000000000004 C 85.60000000000001 7.344000000000004 83.543 6.812000000000004 81.558 6.812000000000004 C 77.72800000000001 6.812000000000004 74.60900000000001 8.976000000000004 74.60900000000001 12.842000000000004 L 74.60900000000001 12.914000000000003 C 74.60900000000001 16.604000000000003 77.623 17.844 80.28200000000001 18.625000000000004 C 82.373 19.264000000000003 84.21700000000001 19.655000000000005 84.21700000000001 20.825000000000003 L 84.21700000000001 20.895000000000003 C 84.21700000000001 21.747000000000003 83.50700000000002 22.315000000000005 81.94700000000002 22.315000000000005 C 80.42300000000002 22.315000000000005 78.61500000000002 21.747000000000003 76.80700000000002 20.612000000000005 C 76.48456061433367 20.422811081290877 76.11682941365154 20.324657264567453 75.74300000000002 20.328000000000007 C 74.53800000000003 20.328000000000007 73.61600000000003 21.251000000000005 73.61600000000003 22.457000000000008 C 73.61600000000003 23.308000000000007 74.07700000000003 23.947000000000006 74.64400000000003 24.302000000000007 C 76.94900000000004 25.792000000000005 79.46600000000004 26.466000000000008 81.80600000000004 26.466000000000008 z M 97.41799999999999 26.43 C 98.588 26.43 99.50999999999999 26.288 100.50299999999999 25.898 C 101.33199978959885 25.567763763111905 101.87839805812115 24.768330116981613 101.88499999999999 23.876 C 101.87791051623417 22.64537107694237 100.88262208299882 21.649191207582327 99.65199999999999 21.641000000000002 C 99.54499999999999 21.641000000000002 99.19099999999999 21.676000000000002 99.01399999999998 21.676000000000002 C 97.80799999999998 21.676000000000002 97.27599999999998 21.073 97.27599999999998 19.831000000000003 L 97.27599999999998 11.707000000000003 L 99.65199999999999 11.707000000000003 C 100.263731760103 11.708065966874289 100.85068622163132 11.465391316300666 101.28305885174923 11.032643362719114 C 101.71543148186714 10.599895409137561 101.95759675314977 10.012730604909942 101.95599999999999 9.401000000000003 C 101.95759675314977 8.789269395090065 101.71543148186714 8.202104590862445 101.28305885174923 7.769356637280892 C 100.85068622163132 7.336608683699339 100.263731760103 7.093934033125718 99.65199999999999 7.095000000000003 L 97.27599999999998 7.095000000000003 L 97.27599999999998 4.718 C 97.27599999999998 3.229868741580928 96.06963125841905 2.023500000000002 94.58149999999998 2.023500000000002 C 93.09336874158092 2.023500000000002 91.88699999999999 3.229868741580928 91.88699999999999 4.718 L 91.88699999999999 7.095 L 91.70999999999998 7.095 C 91.09826823989697 7.093934033125715 90.51131377836865 7.336608683699335 90.07894114825073 7.769356637280889 C 89.64656851813282 8.202104590862442 89.4044032468502 8.78926939509006 89.40599999999998 9.400999999999998 C 89.4044032468502 10.012730604909938 89.64656851813282 10.59989540913756 90.07894114825073 11.032643362719112 C 90.51131377836865 11.465391316300664 91.09826823989697 11.708065966874287 91.70999999999998 11.707 L 91.88699999999999 11.707 L 91.88699999999999 20.718 C 91.88699999999999 25.118000000000002 94.12099999999998 26.43 97.41799999999999 26.43 z M 110.442 26.466 C 113.172 26.466 114.767 25.011000000000003 116.008 23.415 L 116.008 23.627 C 116.008 25.115407400793988 117.21459259920601 26.322 118.703 26.322 C 120.19140740079399 26.322 121.398 25.115407400793988 121.398 23.627 L 121.398 9.58 C 121.398 8.091592599206011 120.19140740079398 6.885 118.703 6.885 C 117.21459259920601 6.885 116.008 8.091592599206011 116.008 9.58 L 116.008 17.704 C 116.008 20.258 114.697 21.571 112.64 21.571 C 110.584 21.571 109.379 20.258000000000003 109.379 17.704 L 109.379 9.579 C 109.379 8.090592599206012 108.17240740079399 6.884 106.684 6.884 C 105.19559259920601 6.884 103.989 8.090592599206012 103.989 9.579 L 103.989 19.406 C 103.989 23.769 106.36500000000001 26.465999999999998 110.44200000000001 26.465999999999998 z M 132.43599999999998 26.466 C 135.236 26.466 137.045 25.153000000000002 138.35599999999997 23.379 L 138.35599999999997 23.627000000000002 C 138.35599999999997 25.115407400793988 139.56259259920597 26.321999999999996 141.05099999999996 26.321999999999996 C 142.53940740079395 26.321999999999996 143.74599999999995 25.115407400793988 143.74599999999995 23.627000000000002 L 143.74599999999995 2.697 C 143.74599999999995 1.2085925992060151 142.53940740079395 0.002000000000006441 141.05099999999996 0.002000000000006441 C 139.56259259920597 0.002000000000006441 138.35599999999997 1.208592599206015 138.35599999999997 2.6969999999999996 L 138.35599999999997 9.579 C 137.07999999999996 8.053 135.30799999999996 6.7410000000000005 132.43599999999998 6.7410000000000005 C 127.93299999999998 6.7410000000000005 123.78599999999997 10.217 123.78599999999997 16.568 L 123.78599999999997 16.638 C 123.78599999999997 22.988 128.00399999999996 26.466 132.43599999999998 26.466 z M 133.819 21.889000000000003 C 131.301 21.889000000000003 129.17399999999998 19.796000000000003 129.17399999999998 16.639000000000003 L 129.17399999999998 16.568 C 129.17399999999998 13.375000000000002 131.301 11.318000000000001 133.819 11.318000000000001 C 136.33599999999998 11.318000000000001 138.427 13.410000000000002 138.427 16.568 L 138.427 16.638 C 138.427 19.796000000000003 136.33599999999998 21.889000000000003 133.819 21.889000000000003 z M 149.927 5.179000000000002 C 151.629 5.179000000000002 152.941 4.186000000000002 152.941 2.625000000000002 L 152.941 2.5550000000000024 C 152.941 0.9930000000000023 151.629 0.03500000000000236 149.927 0.03500000000000236 C 148.225 0.03500000000000236 146.914 0.9930000000000023 146.914 2.5550000000000024 L 146.914 2.625000000000002 C 146.914 4.186000000000002 148.225 5.180000000000002 149.927 5.180000000000002 z M 149.927 26.324 C 150.64201331062333 26.324000443334562 151.32769778404545 26.03975733872339 151.83300711370853 25.533885303793422 C 152.33831644337164 25.028013268863454 152.6217962286311 24.34201286728891 152.62099999999998 23.627000000000002 L 152.62099999999998 9.58 C 152.62099999999998 8.092144883955841 151.41485511604412 6.8859999999999975 149.92699999999996 6.8859999999999975 C 148.4391448839558 6.8859999999999975 147.23299999999998 8.092144883955841 147.23299999999998 9.58 L 147.23299999999998 23.628 C 147.23220377136886 24.34301286728891 147.51568355662832 25.02901326886345 148.02099288629142 25.53488530379342 C 148.5263022159545 26.040757338723388 149.21198668937663 26.32500044333456 149.92699999999996 26.325 z M 165.433 26.537000000000003 C 171.35299999999998 26.537000000000003 175.75 22.102000000000004 175.75 16.639000000000003 L 175.75 16.568 C 175.75 11.104000000000001 171.389 6.741000000000001 165.504 6.741000000000001 C 159.583 6.741000000000001 155.18699999999998 11.175 155.18699999999998 16.639000000000003 L 155.18699999999998 16.709000000000003 C 155.18699999999998 22.173000000000002 159.547 26.537000000000003 165.433 26.537000000000003 z M 165.503 21.889000000000003 C 162.52599999999998 21.889000000000003 160.505 19.441000000000003 160.505 16.639000000000003 L 160.505 16.568 C 160.505 13.765 162.34799999999998 11.388000000000002 165.433 11.388000000000002 C 168.411 11.388000000000002 170.432 13.836000000000002 170.432 16.638 L 170.432 16.71 C 170.432 19.512 168.588 21.89 165.504 21.89 z M 184.73299999999998 26.466 C 188.84499999999997 26.466 191.99999999999997 24.55 191.99999999999997 20.328000000000003 L 191.99999999999997 20.258000000000003 C 191.99999999999997 16.78 188.91599999999997 15.503000000000004 186.25699999999998 14.616000000000003 C 184.2 13.906000000000002 182.39199999999997 13.410000000000004 182.39199999999997 12.346000000000004 L 182.39199999999997 12.275000000000004 C 182.39199999999997 11.530000000000005 183.06599999999997 10.962000000000003 184.37799999999996 10.962000000000003 C 185.51199999999994 10.962000000000003 186.96599999999995 11.424000000000003 188.48999999999995 12.169000000000004 C 188.84499999999994 12.346000000000004 189.09299999999996 12.417000000000003 189.48299999999995 12.417000000000003 C 190.68799999999996 12.417000000000003 191.64499999999995 11.494000000000003 191.64499999999995 10.288000000000004 C 191.64499999999995 9.366000000000003 191.14899999999994 8.656000000000004 190.36899999999994 8.266000000000004 C 188.52599999999995 7.344000000000004 186.46899999999994 6.812000000000004 184.48399999999995 6.812000000000004 C 180.65399999999994 6.812000000000004 177.53499999999994 8.976000000000004 177.53499999999994 12.842000000000004 L 177.53499999999994 12.914000000000003 C 177.53499999999994 16.604000000000003 180.54899999999995 17.844 183.20799999999994 18.625000000000004 C 185.29899999999995 19.264000000000003 187.14299999999994 19.655000000000005 187.14299999999994 20.825000000000003 L 187.14299999999994 20.895000000000003 C 187.14299999999994 21.747000000000003 186.43299999999994 22.315000000000005 184.87299999999993 22.315000000000005 C 183.34899999999993 22.315000000000005 181.54099999999994 21.747000000000003 179.73299999999995 20.612000000000005 C 179.41085254620194 20.422985922359825 179.04349070690014 20.324838450711933 178.66999999999996 20.328000000000007 C 177.46399999999997 20.328000000000007 176.54199999999997 21.251000000000005 176.54199999999997 22.457000000000008 C 176.54199999999997 23.308000000000007 177.003 23.947000000000006 177.56999999999996 24.302000000000007 C 179.87499999999997 25.792000000000005 182.39199999999997 26.466000000000008 184.73199999999997 26.466000000000008 z" stroke-linecap="round" />
</g>
</svg>